<svg width="157" height="157" viewBox="0 0 157 157" fill="none" xmlns="http://www.w3.org/2000/svg">
<path d="M40.869 85.899C43.4458 94.7747 47.2781 103.015 54.5091 108.437C61.7402 113.858 70.4821 116.65 79.3788 116.377C88.2756 116.104 96.8301 112.783 103.716 106.929C110.601 101.074 115.433 93.0132 117.461 83.9965C115.574 92.3858 108.339 99.211 101.932 104.658C95.526 110.105 87.5668 113.195 79.2891 113.449C71.0115 113.703 62.878 111.106 56.1501 106.061C49.4222 101.017 43.2665 94.157 40.869 85.899Z" fill="white"/>
<mask id="path-2-inside-1_446_508" fill="white">
<path d="M101.585 132.185C101.771 132.618 102.273 132.819 102.703 132.628C111.338 128.784 118.951 122.965 124.917 115.642C131.062 108.099 135.273 99.1877 137.185 89.6806C139.098 80.1735 138.653 70.3575 135.891 61.0837C133.129 51.8098 128.132 43.3579 121.333 36.4605C114.535 29.5631 106.14 24.4285 96.8765 21.5017C87.613 18.5749 77.7604 17.9442 68.1727 19.6644C58.5851 21.3846 49.5517 25.4036 41.8557 31.3732C34.3874 37.1661 28.3971 44.6262 24.3703 53.1402C24.1672 53.5697 24.3606 54.0799 24.7943 54.2737V54.2737C25.2237 54.4657 25.7269 54.2748 25.928 53.8497C29.8394 45.5845 35.6558 38.3425 42.9066 32.7183C50.3819 26.9199 59.1562 23.0161 68.4689 21.3453C77.7816 19.6745 87.3517 20.2871 96.3495 23.1299C105.347 25.9728 113.501 30.9602 120.105 37.6597C126.709 44.3593 131.562 52.5689 134.245 61.5768C136.928 70.5847 137.36 80.1191 135.502 89.3536C133.645 98.5881 129.555 107.244 123.586 114.571C117.796 121.677 110.41 127.326 102.031 131.059C101.601 131.251 101.4 131.752 101.585 132.185V132.185Z"/>
</mask>
<path d="M101.585 132.185C101.771 132.618 102.273 132.819 102.703 132.628C111.338 128.784 118.951 122.965 124.917 115.642C131.062 108.099 135.273 99.1877 137.185 89.6806C139.098 80.1735 138.653 70.3575 135.891 61.0837C133.129 51.8098 128.132 43.3579 121.333 36.4605C114.535 29.5631 106.14 24.4285 96.8765 21.5017C87.613 18.5749 77.7604 17.9442 68.1727 19.6644C58.5851 21.3846 49.5517 25.4036 41.8557 31.3732C34.3874 37.1661 28.3971 44.6262 24.3703 53.1402C24.1672 53.5697 24.3606 54.0799 24.7943 54.2737V54.2737C25.2237 54.4657 25.7269 54.2748 25.928 53.8497C29.8394 45.5845 35.6558 38.3425 42.9066 32.7183C50.3819 26.9199 59.1562 23.0161 68.4689 21.3453C77.7816 19.6745 87.3517 20.2871 96.3495 23.1299C105.347 25.9728 113.501 30.9602 120.105 37.6597C126.709 44.3593 131.562 52.5689 134.245 61.5768C136.928 70.5847 137.36 80.1191 135.502 89.3536C133.645 98.5881 129.555 107.244 123.586 114.571C117.796 121.677 110.41 127.326 102.031 131.059C101.601 131.251 101.4 131.752 101.585 132.185V132.185Z" fill="white" stroke="white" stroke-width="1.25408" mask="url(#path-2-inside-1_446_508)"/>
<path d="M38.288 71.7552C40.9228 62.5634 44.8587 54.0247 52.321 48.3898C59.7833 42.7548 68.8179 39.8365 78.0236 40.0873C87.2292 40.3381 96.0915 43.7442 103.236 49.7771C110.38 55.8101 115.407 64.1329 117.538 73.4546C115.556 64.7815 108.046 57.7455 101.399 52.1323C94.7516 46.5192 86.506 43.3502 77.941 43.1168C69.376 42.8834 60.9701 45.5987 54.0271 50.8415C47.0841 56.0843 40.7395 63.203 38.288 71.7552Z" fill="white"/>
<path d="M21.6385 62.4646C21.0364 62.2748 20.3932 62.6089 20.215 63.2146C17.3402 72.9838 17.0148 83.3299 19.2797 93.2486C21.6293 103.538 26.6805 112.991 33.9065 120.622C41.1326 128.252 50.2687 133.78 60.3622 136.63C70.0902 139.377 80.364 139.538 90.1864 137.108C90.7997 136.957 91.1635 136.33 91.0046 135.719V135.719C90.8439 135.101 90.2105 134.733 89.5904 134.886C80.1694 137.205 70.3185 137.045 60.9899 134.411C51.2901 131.673 42.5103 126.36 35.5661 119.027C28.622 111.694 23.7678 102.61 21.5098 92.7219C19.3366 83.2045 19.645 73.2777 22.396 63.9021C22.5738 63.2962 22.2407 62.6544 21.6385 62.4646V62.4646Z" fill="white"/>
<path d="M78.0001 81.9793C79.4968 81.9793 80.9322 81.3847 81.9906 80.3264C83.0489 79.2681 83.6435 77.8326 83.6435 76.3359V67.8709C83.6435 66.3742 83.0489 64.9388 81.9906 63.8804C80.9322 62.8221 79.4968 62.2275 78.0001 62.2275C76.5034 62.2275 75.068 62.8221 74.0096 63.8804C72.9513 64.9388 72.3567 66.3742 72.3567 67.8709V76.3359C72.3567 77.8326 72.9513 79.2681 74.0096 80.3264C75.068 81.3847 76.5034 81.9793 78.0001 81.9793ZM75.1784 67.8709C75.1784 67.1225 75.4757 66.4048 76.0049 65.8757C76.534 65.3465 77.2517 65.0492 78.0001 65.0492C78.7485 65.0492 79.4662 65.3465 79.9953 65.8757C80.5245 66.4048 80.8218 67.1225 80.8218 67.8709V76.3359C80.8218 77.0843 80.5245 77.802 79.9953 78.3312C79.4662 78.8603 78.7485 79.1576 78.0001 79.1576C77.2517 79.1576 76.534 78.8603 76.0049 78.3312C75.4757 77.802 75.1784 77.0843 75.1784 76.3359V67.8709ZM89.2868 76.3359C89.2868 75.9618 89.1382 75.6029 88.8736 75.3383C88.609 75.0737 88.2502 74.9251 87.876 74.9251C87.5018 74.9251 87.1429 75.0737 86.8784 75.3383C86.6138 75.6029 86.4651 75.9618 86.4651 76.3359C86.4651 78.581 85.5733 80.7341 83.9858 82.3216C82.3983 83.9091 80.2452 84.801 78.0001 84.801C75.755 84.801 73.6019 83.9091 72.0144 82.3216C70.4269 80.7341 69.5351 78.581 69.5351 76.3359C69.5351 75.9618 69.3864 75.6029 69.1218 75.3383C68.8572 75.0737 68.4984 74.9251 68.1242 74.9251C67.75 74.9251 67.3912 75.0737 67.1266 75.3383C66.862 75.6029 66.7134 75.9618 66.7134 76.3359C66.7159 79.0833 67.7203 81.7353 69.5384 83.795C71.3566 85.8547 73.8635 87.1805 76.5893 87.5239V90.4443H73.7676C73.3934 90.4443 73.0345 90.593 72.77 90.8576C72.5054 91.1221 72.3567 91.481 72.3567 91.8552C72.3567 92.2293 72.5054 92.5882 72.77 92.8528C73.0345 93.1174 73.3934 93.266 73.7676 93.266H82.2326C82.6068 93.266 82.9656 93.1174 83.2302 92.8528C83.4948 92.5882 83.6435 92.2293 83.6435 91.8552C83.6435 91.481 83.4948 91.1221 83.2302 90.8576C82.9656 90.593 82.6068 90.4443 82.2326 90.4443H79.4109V87.5239C82.1367 87.1805 84.6436 85.8547 86.4618 83.795C88.2799 81.7353 89.2843 79.0833 89.2868 76.3359Z" fill="white"/>
</svg>
